<?xml version="1.0" encoding="UTF-8"?><svg id="Camada_2" xmlns="http://www.w3.org/2000/svg" viewBox="0 0 949.5583652 648.2102184"><defs><style>.cls-1{fill:#fff;fill-rule:evenodd;}</style></defs><g id="Camada_1-2"><path id="Amazonas" class="cls-1" d="M0,502.917293l.2013667-.3956776,1.2894504-.9961734,1.8864836-2.1831519.5970332-1.1905089-.1978337-.7948313-.3991995-.4981138v-.8937371l-.1978337-.8937914-.6959501-1.2893604.0989169-.399208.5970332-1.2894147,1.0916167-1.0915488.3002835-.9962277.1978329-.4945291.2967506-1.1940393h.4981164l.3956666-.2967175.4981172-.8937914.794867-.5969653.992699-1.4872807.2967514-.8937371,1.3919002-1.0950792.4945834-.0989601,1.1940665-.7948313.3956657.1024362.8937847-.3002479.5970332-.7948856,1.7875659-1.5861322.9927007-.3002479h.794867l.3956674-.2967175h.893783l1.1940665-.7948313.4945834.0988515.794867-.5969653.3956674.0989058,1.2929825-.4945834.098916-.8937371.1978354-.399208.7948653-.3956233.2967514-.3956776.8973151-.1024362.3956674.3002479.296748-.3002479.7948686-.0989058.4981172.0989058,1.0916133-.4945834h1.7875693l.7948653-.3991537.1978354-.3956233.3991978-.2967718.098916.4945834.3956674.1978116.6959526-.6923951-.2967514-.399208.3956674-.1978116v-.4981138l.3991978.1024362.395664-.3002479-.0989126-.6959255.6959492-.4945834.296748.3956776h.3992012l.8902509-.9926973.2013658-.4945291-.2013658-.399208.2013658-.2967175.296748-.8937371.4981172-.3003022v-.3956233l.2967514-.2967718-.1978354-1.1940393.0989194-.1978116.4945834-.1978116.1024464-.4981138-.3991978-.8937371-.8937847-.3956233-.296748-1.2929451-.3992012-.3956776-.2967514-1.7874743-.395664.2967175-.1024498-.4945834v-.9961734l-.2967514-.4945834.197832-.3956776-.197832-.4980595-.9926973-.8937371-.3992012-.0989601-.296748-.8937371-.5970366-.6959255-.5934994-.1978116v-.5970197l.1978354-.3956233-.1978354-1.3919053-1.5897339-1.7874743-.197832-.7948313.098916-1.3883206.8937847-.9962277-.2967514-.2967175.4945834-.3956776-.296748-2.1866823.3956674-.0989058.5970332-.5969653.098916-.3956776.296748-.399208.3992012.0989058.7948653-.3956233-.3002852-.7948856.6959526-1.0915488-.296748-.399208-.0989194-.8901524.296748-.399208.0989194-.4981138h.3992012v-.3956776l.2967514-.2967175-.0989194-.8937643.7948686-.5969925-.3002852-.2967446.2013692-.399208.2967446-.2967175h.4945868l.3002818-.2967446,1.1905327-.2013421-.098916-1.3883206.2967514-.2013692.8937847-.1978116-.0989194-.3956504.8937847-.399208.7948653-.8937371h.4981172v-.9926701l.2967514-.2967446.3991978-.8937371.3956674.0988787.7948686-.5969653-.0989194-.3956504.9927007-.5970197.2967514-.3956504-.2967514-.3003022.5970332-.2967175v-.3956504l.3956674-.1024362-.197832-.3957048.098916-.4980867-.197832-.3956504.197832-.3991809.7948686-.2967175.3956674.2967175.2013624-.3956504-.3002818-.4945563v-.8937643l-.3956674-.300275v-.7948313l.3956674-.7948585.7948686-.4945291-.3956674-.7948585.3956674-.1978116-.2967514-.4980867.197832-.8937914-.3956674-.8937371-.2013624-1.391851.3991978-.2967175v-1.490784l.4945834-.6923951-.197832-.3991809.4981138-.1978388.3956674-1.1904818.2967514-.300275v-.3956504l.4981172-.7948313v-.4980867l.6959492-.2967718-.098916-.4980867.5934994-1.0915759v-.4945563l.5970332-.7948585-.0989194-.4980867.4945834-.098933.4981206-.5969925-.2967514-.3956504.395664-.1978388.1978388-.8937371-.1978388-.300275-.197832-.6923951.4981138-.7948585-.2013624-.3002479.0989194-.8937643-.0989194-.3956233-.3956708-.1978388.2967514-.3003022-.4945834-.7948042v-.3956504l-.3991944-.197866v-.3991537l.3991944-.2967446.197832-.2967175h.4945902l.4981138-.6959526h.395664l.2013692.3956504,1.1905361-.4945563.2967514-.2013692.102443-1.4872264.8902542.2967446.7948653-.1978388.2013692-.3991809.2967514-.2967446.395664.2967446.3002818-.2967446.3956708-.8937643.7948653.498141.0989194-.498141.3991944-.1978116-.3002818-.2967175v-.4981138l.4981138.0989058.2967514-.3956504h.3992012l.2967514-.300275.7948653.5970197.7948653-.4981138h.4945834l.8937847.4981138.2013692-.4981138.395664-.1978116v.3991809l.5970332-.300275.9926973-.7948313.0989194-1.0915759.2967514-.3956776.1024498-.3991537-.3002818-.3956504.7948653-.1978388.2967514-.300275h.4981138l.3956708-.1978388,1.1940597-1.2893876.4945902.1978388.5970332-.1978388.2967446-1.1940393.8937847.300275-.197832.4945834.5970332.1978116.3956708-.9926701.3002818.300275-.2013692.4945834.3992012.0989058.2967514-.3956504v-.8937643l.9926973-.2013421v-.4945834l-.4945834-.5970197.0989194-.4945563h.4945834l.2013624.3956776.3956708-.098933.197832.4980867.3992012.098933.197832-.4980867.4981138-.2967446v-.4981138l-.3991944-.3956504.4981138-.0989058.2967514.2967446.6959459-.4981138.794872-.1978388v-1.0915759l.197832-.3991809-.0989194-.6923679.3956708-.1978388.197832-1.0951335h1.2929859l.5970332-.4945563h.6924154v-.4980867l-.1978388-.3956504.3992012-.2013692.5935028.300275.4981138-.399208,1.1905361.498141-.2967514.2967175.197832.4980867.3992012-.1978116.9926973-1.5896626.3956708.7948313.7948653-.2013692.7948653-.4945563.0989194-.5970197.4981138-.2967446.6924222.5970197.2013624-.4981138-.2013624-.3956504,1.2929791-.5970197.3956708.098933v-.4980867l.7948653-.2967718.3002818-.3956233.6924154.4945563,1.4908179-1.0915759.4981206-.7948585.7948653-.4980867-.3002818-.3956504.9926973-.9926701.9926973-.0989058.3992012-.7948313-.0989126-.6959255,1.0916167.3991809.2967446.3956504.3992012.1978116v-.4945563l.2967514-.3991809h.7948653l.4981206-.9926701.2967446-.0989058.3956708.0989058.9962345-.0989058-.3002886-.3956504.4981206-.3003022-.3002818-.3956233v-.4981138l.4981138.098933.395664-.3956776-.0989126-.4980867.4981138.098933v-.3956504l-.2967514-.5970197.8937847-.2967718.0989194.4945834.395664-.1978116-.0989126-.8937914.5970332.5970197.395664-.2967175-.197832-.5970197.2967514-.2967446.7948653.4945834.6959526-.6959255.8937779-.3956504,1.4908179-.3991809.5935028-.3956504h.5970332l.5970332-.1978388.2967446.3956504v.5970197l.5970332-.098933.4945834-.4980867.0989194-.3956504-.2967446-.4981138.3991944-.2967175.395664.6958983.0989194.6924222h.5970332l.6959526.7948313h.5935028l.6959526-.5934621,1.0916167.3956504.7948585-.6959526.0989194.5970197,1.4908111-.8937371-.1978252-.399208.1978252-.4945834.3956776-.1978116.2013692.4945834v.3991809l-.4981274,1.0915759-.4981138.1978116v.399208l.3991944.3956504.5970468.3991809h.5934893l1.0951471-.6959255.7913416-.6959255.7948585-1.3918781.5970332.098933v-.4945834l.2967582-.3956233.794872.0989058,1.0916167.9926701h.3991944v-.4981138l-.6959526-.6959255-.0989194-.8937371.5970332.0989058.4945834.4981138.4981274-.1978388-.0989194-.6959255.4945834-.1978388h.6959526l.4981138.6959255h.6959526v.4945834l.2967446.300275h.794872l.7948585-1.5896626.6924222-.498141.9962277.399208.5935028-.1024362.3002886-.2967718.395664.2967718.0989194.5970197.4981138-.098933.794872.098933.395664.1978116-.0989194.5970197.5970332-.3956776-.2013692-.5969925-.5935028-.3991809-.300275-.5934893.7948585-.3002479.5970332,1.0951063.6959526.2967175.6959526-.3956504.2967446-.399208-.2967446-1.6885684-.3002886-.4945563.4981138-.098933.8937914.2967718.6959526-.1978388h.5934893l-.0989058,1.0915759.4981138-.098933.1978252-1.3918238h.494597l.300275.4980867-.3991944.5934621.3991944,1.3918781.6959526-.5970197v-.8937371l.1978252-.2967718.6959526.098933.2967582-.1978116.2967446.1978116.0989194.5969925.4981138-.300275-.1978252-.8937371.8937779.2013692,1.0916167,1.2893876.395664-.4945563-.0989194-.9962005.5970332-.2967446.5970332-.0989058.4945834.1978388-.2967446.4980867.2967446.3956504,1.0916302-.4945563.1024362-.7948313.494597.0988787-.0989194,1.1905089.3991944.1978116.6924222-.1978116.300275-.5934893.3956776-.1024362.4981138.2013692.5934893-.2013692.399208-.7948313v-.3956504l-.5970332-.3956504.1978252-.4980867.5970468.3956504.4981138.5969653.1978252.6959526,1.2894555.1978388.3002886.3002479.2967446-.5970197v-.5970197l.2967446-.3956504.399208.2967718.4945834-.3956504.300275-1.0951063.4945834-.4945834,1.0916167-.0989058-.1978252-1.1940393.1978252-.3956504,1.5897441-.7948313-.794872-.9926701-.1978388-.4980867.6959526-.1978388.5970332.399208.5935028-.2013692.2013692-.5934893.4945834-.3991809-.4945834-.6959255.1978252-.8937643.6959526-.2967175.2967582-.6959255.8937779.0989058.794872-.9926701.4945834-.2967175.3991944-.098933.5935028.2967446.9962277.9926701,1.0916167.300275.4945834-.1024362.399208.5969653.5970332.098933.2967446-.5934621.1978388-1.1940393-.0989194-1.1905089.4981138.098933.0989194.5970197.395664.4945563.0989194-2.183179h1.1940665l.395664.2967718-.0989194.5970197-.6959526,1.1904818v.7948585l.2967582.3956504.4981138.3002479.4981138-.098933,1.1905361-.4980867.5970332-.3956504.8937779-.3002479.1978388-.3956504.794872-.5970197-.0989194-.6959255,1.4872807.300275.5970332,1.0915488-.5970332,1.4907568.3002886.2967718h.5935028l.4981138-1.6885956.395664-.1978116.794872.7948042.4981138-.1978388.0989194-.4980867.9926973.098933.2967446-.3956504-.4945834-.8937643.395664-.3991537,1.0951607.2967175,1.1905225.1024362.4981274-.2013421.5935028.2013421.7948585,1.4872535.5970332.5970197.4945834.2967175.4981138-.3956504.0989194-.5970197-.0989194-.5934893.2967582-.4980867.6959526.7948585.7948585.1978116.2967446.5969925-.0989058,1.2894147.4981138,1.7875286-.3002886.3991537-1.1905225.4945834-.0989194.4980867,1.3883613,1.1904818-.4945834.4980867.5970332.1978388,1.6886499-.8937371.2967446.4980867-.3991944.4945834-.7913281.1978116.2967446.5970197.5970332.3956504,1.1905361.2013692.5970332.0989058.2967446-.300275.3956776.4980867.2013556,1.7875286.395664.2967175.4981274-.0989058.4945834-.3956504.0989194-.5970197.3991944-.2967175.9926973-.2967446v-.4980867l-.8937779-.5970197.5935028-1.6885956.300275-.1978116.8937914.3991537.395664.2967446.4981138-.098933.2967446-.3991537v-.6959526l.3002886-.3956504.2967446,1.3918781.2967582.3956504.7948585-.2967718.5970332.2967718-.5970332.5970197.0989194.8937371.399208.2967446,1.1905225.1978388.2967582.4980867.1024498.4945834.5935028.2013149,1.0916167-.992643,1.6886499-.4981138.8937779-1.4907568.4981138-1.7875014.1978388-2.1831247.3991944-.498141h.395664l2.7802666-14.7981252,2.483522-13.7030188,7.9451493-43.7973559,4.0732253-23.2375456,5.1648827-28.9992307,3.3737694-19.863912-.1978388-1.9853266.399208-.7948313.4945834-.3991944.300275-.6923951-.1024362-2.1866823.2013421-1.0915759.2967718-.5970197.4945834-.3956504.9962277-.4981003v-.8937507l-.4981138-.9926565.0989058-2.1831654-.1978388-.6959255-.7948585-1.2929316-.2967446-1.2894012.2967446-1.1904953.6959526-1.2929451v-1.5896762l.7948585-.6923815.1978388-.5970197-.2967446-.9926565-1.2929995-1.6885956-.1978116-.5970197.1978116-1.1904818-.4945834-.5970197-.4981138-.0989058-.0989058-.4981003.4981138-.0989194.3956776-.5934757.3956504-.2013556v-.5934893l-1.0916031-.3002615-.4945834.2013556-.6959526-.7948313v-.8937643l-1.1905361-.8937507-.8973219-.3991809-.2967446-.4945699h-.4945834l-.300275-.2013556-.1978388-.3956504.1978388-1.9853266-.2967718-.3991944-.5970197-.8937507h-.4945834l-1.3919053-1.0915759.7948585-.9926701-.1978116-.5970061-.5970468-.5934757-.4981138.0989058-.1978388-.5970061-1.2894419-1.0915759.0989058-.4981003-.4981138-.0989194.1024634-.4981003-.4981138-.0989058.3956504-.3956504-.1978388-.4981003.5970468-.4945699.3956504-.0989194-.0989058-.3991809.1978388-.3956504.8937914-1.1940257.2013692-.8937507.3956504-.9926701.5970468-.4945563-.5970468-.2013692.0989058-.4945563-.3956504-.3991944-.399208.2013692-.3956504-.8937643-.498141-.3991809.3003022-.4945698.2967446-1.1940257-.6959526-1.1904818-.4945834-.2967446.1978388-1.391851-.5970468-.6959255-.5970197-.1978252-.4945834.0989194-.098933-.8937507-1.3918781-.5970197-.7948856-.0989058-.2967446-.395664-1.3918917-.3991809-.8937914-.4945699-.2967446-.3002615-.1978388-.5934893-.3991944-.0989058-.5935028-.8937507-.6959526-.5970197h-.8937779l-.1978388-.3956504-.9962277-.5970061h-.4945834l-1.1905361-1.8864208-.8937914.0989058-1.1940665-.1978252-.4945834.2967446-1.5897305-.9926701-.5970332-.7948313-.1978252-.5970197-.5970332-.1978252-.2967582-.4980867-.4981138-.395664-.9926973-1.391851-.395664-.3956504-.399208-.8937507-2.9780918-2.2856017-.2967582-.2967446v-1.5896762l.4945834-.5934757.399208-1.1940257-.3002886-5.8570741v-4.4722975l.0989194-9.6334326v-12.5125235l.1024498-4.2709351.395664-.0989126.4945834.1978252.2013692.7948381.395664.2013624.5970332-.0989194.4945834-.3991809.2013692-.6959255-.3991944-.4945631h1.4908111l.1978388.4945631,1.2929723.3991809.8937914-.5970061.5934893-1.0915827.4981274.197832.5935028-.0989126.3991944.4980935,1.4908111-.3002682.5935028-.3956572.5970332.197832.2967582-.3956572.6959391.2967378.2967582.0989194.2013692.5970061.9926973-.6959255.2967446-.5970061,1.1905361-.4945699.6959526-.8937507.5970332.3956504.7948585-.0989126.3956776-1.391851.8937779-.5934757h.4981138v-.5970129l.5970468-.2967446,1.2894419.197832.399208.2967378.7913281,1.2929384h.399208l.3956504.3956504h.6959526v-.4945631h.5970468l.1978116-1.0951131,1.2929995-.6923951v-.6959187l1.2894419.1978252.4981138-.0989126-.1024362-.8937507.3991809-.3991876.4945834-.2967378h.4981138l.1978388-.4981003.399208-.2967446.8937914-.3956504h.6924222l.3991809.2967378.098933.6959255.6959255.0989126.4946106.2967446v.7948381l.4981138.1978252.9926973.8937507v.6959255l2.1867637,1.7875014.4945834.8937507.399208-.1978252.5934893-.6959255v-.5934757l.8937914.2967378.6959526-.1978252.4981138-.6959255.7948585.1978252-.300275.5970129.3991809.7948381-.6959526.8937507h1.1905361l.5970468-.2013556.5970197.2013556.4945834-.3002682.2967718.3991809,1.3918781-.3991809.4981138.2013556.1978388-.5970129-.0989058-.7948381.3956504-.2967378.098933-.7948381.6959526-.1978252.4981138.1978252h.7948585l.5935164.3956504.5970197-.0989126.2967446.2967446.5970468.3002682.0989058-.7948381-1.5897169-2.7801715-1.1905361-.8937507-.6959526-.3002682-.2967446-.4945698-.098933-.8937507.7948585-.6959255.5935164.0989126.4981138-.1978252.3956776-.9926633-.2967718-1.4907636-.4981138-.3956572-.2967446-.5970061v-1.1904953l.5970468-.2013556.5934893.0989126.399208-.5934825v-.6959255l-.399208-.4980935-.5934893-.0989194-.8937914-.7948381h-.7948585l.0989058-.6923951-.2967446-.3991809-.1024634-.4945631.3003022-.3991876,1.1905089-.2967378-.4945834-.7948449-1.7910861-.5970061-.7913281-.6959255.8937643-.7913077-.1024362-.5970129-.3956776-.4981003-2.780253-2.3809771-.6959526-.2013624-.5970468.300275-.2967446-.3991876-.5970197-.0989126-.098933-.3956572-.6923951-.8937507-1.4908383.0989126-.6959526.2967446-.9926973-.3956572-.2967446.6923951-1.6886499,1.5896762-.9926973-.2967378-.2013692-.6959255.098933-.4945698-.5935164-.2013556-.4981138.0989126-1.8864887-.2967378-1.4908111.3991809h-2.479978l-1.0951607-.3991809-.9926973-.8937575-.7948585.0989126-.5935164.3991876h-.8937643l-1.1940665.3956572-.6959526.5970061-.7913281-.3991809-.399208.0989126-.1978388-.3956572.1978388-1.1904885-.1978388-.7948381-1.0916167.5934757-.4981138-.2967378-.794872.0989126-1.6886499.9926701-.4945834.5970061-.3991944.8937575-.4945834.1978252-.9927108-.0989126-.7948585-.7948381v-26.3179888l.0989194-7.8459346.8937779.3002716-.1978388.3956504.3956776.1978252,1.4908111-.2967344.4945834.2967344v-.4945631l.399208-.4981003h.4945834l1.4908111-1.0915793.6959526-.1978252.5935028.1978252.300275-.2967378.5935028.2967378.8937914-.1978252.0989058.5934791.6959526-.0989126.5970468.0989126.6959255-.3956538.4945834.3956538.399208-.7913077.3956776-.0989126.9926973-.5970129,1.8900191-.6959221.7913281-.7948381,3.0805552,1.391851.3956504-.300275v.4981003l.4981138.0989126.1978388-.3956504.2967718.2967378.5970197.1978252.399208-.2967412,1.2894419.3956538,1.7875557,1.1940257v.5934791l.399208-.2967378,11.1210663-.1978286h25.8243321l28.5021489.0989126h.498141l-.1024634-.5970095-.0989058-.3956538-.9926973-.1978286.4981138-.9961971-.9926973-.6923917-.7948856-.102443-.3991809.3991843-.5935164.2967378h-.7948585l-.4981138-1.1904919.5970197-1.886414h-.4981138l-1.2894419.1978252v-.9926633l.1978388-.7948415.5970197-.9926633.4945834-2.5823395.399208-.5970129.6924222-.3956538.7948585-.8937507.4981138.0989126.8937914-.9926633.8937643-.300275.3956776.300275.7948585-.300275.4981138.201359.5970468.7948415.4945834,1.1904885.5970468.3956538.4945834,1.391851.300275.4945631.3956504-.0989126.7948856.300275,1.1905361-.0989126.9962277.6923883,1.0916031,1.391851,1.6886499,1.490767,1.6886499.0989126.5935164-.1978252.399208-.9962005.5934893-.1978252.300275-.4945665-.399208-1.6885888,1.6886499-.300275,1.1940936-.8937507,1.2894419-1.3883172.1978388-.5970129.7948585-.5970095,1.9853945-3.377181.5970468-.4945665h.9926973l2.8827164.8937507,2.2821392.0989126,1.8864887-.0989126.6959526-.6959238,1.0916031-2.6812555,1.4908383-1.0915776.3956504-1.8864174.5970468-.7948381.9926973-.7948381,3.8754137-1.98533.4945834-1.391851.4981138-.3956521,1.2894147-.3002733.8938186.0989143,1.3919053.7948381,1.0916302,1.2929367.2967446,5.7581632.399208,1.0951114.1978116,2.5788091,1.3919053,5.5638701.7948856,2.0842393.3956504.6959255,1.8864616.8937541.7948856-.098916,2.879186.1978286.9962548.3991843.8937643,1.1904919.7913281,1.4907636.498141,1.6885922.9926973,1.886414-.197866,1.3883172.098933,1.391851.6959526,1.1904919.1978116,1.0915793.1978388,7.4502841.3003022,1.4907636v1.5861458l-.399208,2.1866891-.4945834,4.1720157.0989058,4.9633234.2967446,1.4907704-.2967446,1.9853266,12.4140386-3.3771776,13.8024407,12.4171413,15.0000104,13.1059992,5.659439-1.3883138,1.3919324.0989126.2967175.6959255.9926973.4945698.098933.5970061.5970197.0989126,1.5897712-.3956504.3956504-.5970129.5970197-.0989126.7948856.2967378.5934893-.4945631-.098933-.5970129.197866-1.0915827.300275-.3002682.6959526.2013624.9926973-.5970129,1.0916031.6959187.8937914-.1978184.3956504-.2013624h.498141l.2967446-.2967378.399208.2967378.3956776-.0989126-.098933-.5970129.6959526-.8937507.3956504-.8937507.5970468-.4945699-.098933-1.0915759.597074-.4981003.8937643.1978252.3956504.300275.197866-.4981003.7948313-.4981003.498141-1.0915759-.399208-.5934757.9926973.0989126,1.5897169-.4981003.8937914-.6959255.3003022.2013556.8937643-.3002682.2967446-.3956572.3957048-.0989126.3002479.2967446.3957048-.2967446.3002479-.8937507.5935164-.0989126.5970197-.8937507.9926973-.1024498.498141.2013624.2967446-.300275.5970197-.0989058.3956776.3002682.0989058.4945631.3991809.0989126.4946106-.7948381.8937914-.4945631,1.490784,1.1904885-.0988787-.9926633.4945563-.0989126.399208-.1978252.1978116.4945699.7948856.0989058.2967718-.2967378.6959255,1.2894079.2967718-.4945698h.4981138l-.197866.3956504.197866.5970129h.8937914l.1978116.7948381.399208.197832-.300275.4980935.5970197.4945698.1978116.4980935.6959526.6959255-.2967446,1.0915827.098933.5970129.8937643-.300275.098933.3991876-.5970197.7948381.1978116,1.3883206-.3956776-.0989194-.2967446.3956572-.399208-.1978252-.3956504.3991809.1978388.3956572-.2967446,1.0915759h-.5970197l.0988787.3991876-.4945834,1.2894012-.3991809-.1978252-.8937914.6959255-.1978116,1.0915759-.7948856,1.1904953.3956504.3991809.3992352.197832.6959526,1.886414.2967446.3002682.1978388.5934825.4981138.2013624.2967175.3956504.498141-1.0915759,1.5861865-.197832.300275-.3002682.5935164-.0989126.2013692-.3956504.3956504.1978252,1.0916031-.0989126.4981682-.300275.2967175-.4945631.7948856-.3991876.0989058-1.2894079.5970197-.4981003-.2967718-.3956504.0989601-.3991876.8937371.300275.0989601-.4981003-.1978116-.3956504.1978116-.3991876-.2967718-.3956504.1978116-.4981003-.8937371-1.3883138.7948856-.300275.3956233-1.1904953.399208-.2967378h.3956776l.1978116-.7948381,1.0916574-.4981003-.197866-.5934757.6959255-.4981003.7948856-1.9853266.3956776.1978252.9926973-.7948381,1.3919053.1978252.399208-.2967378.2967175.4981003-.2967175.3956504.2967175.3956504.3956776-.2967378.7948856.1978252,1.0916031-.2967378.6959798-.0989194.2013421.5970129-.2013421.5934825.5970197-.1978252.7948313-.5970129.8937914-1.5896762.197866-1.4872332.399208-.3991876.3956233-1.2894012-1.0916031-.0989126-.0989058-.300275.0989058-.4945631.4945834-.3991876.2013964-1.1904885v-1.6885888l.1978116-1.0915827-.1978116-.8937507.7913009-.0989126.8937914-.4981003.2013964-.5934757.8937371-.4981003.7948856.4981003h.4945834l.399208-.3991876.5934893.8937507-.2967718.9926633.197866.3991876.8937914-.300275,1.1940393.0989126.3956776-.4945631.4981138-.1978252.7913552-1.1940257,1.0951335-1.1904885.5935436-.8937507-.0989601-.4981003-.3956776-.9926633.4946377-.6959255.4980595-.0989194.2967718.3991876.0989058.4945699.399208.2013556.4945834-.2013556.6959255-.6923951.399208-.6959255v-.4980935l.3956776-.0989194.399208.1978252.2967718.8937507.3956233.2013624.4981138-.2013624v-.4945631l.8937914-1.194019-.4981138-.2967446,1.9889249-1.391851.7948856-1.0915759.3956776.1978252.6959255,1.391851-.3002479.2967378.1024362.5970129.6923951.5970129.8937914,1.4872332.3003022.2013556.5934893.0989126,1.2929451-.7948381.0989601-.3991876.3956233-.1978184.2013964-.9926701.2967718-.3956504v-.3991876l.0989058-.3956572.9926973.3956572.399208-.0989126.3956233-.2967446h.4981682l.7948313-.6959255.5935436-.8937439.4980595-.197832.6959798-.5970129,1.0916031-.0989126.7948856-.8937507-.3003022-.2967378.1024362-.3991876-.1024362-.4981003.4981682-.3956504,1.0915488-1.7875014,1.1940936-.4981003-.1024362-.4945631.2013964-.4981003.3956233.3991876,1.0916574-.300275.6959255-.5934825.5970197-.7948381,1.2894691-.5970129.2013421.300275.5934893.0989126.6959798-.6959255.1978116-.4981003.5970197-.5934791v-.4980969l.6959798-.6959255.6959255.3991876.4945834-.2013624,1.2929995.3002716.0989058.8937541-.399208.9926633-1.1905089,1.0915827.1978116.3002682-.0989058.4945699-1.0916031,1.2929384.1978116.3956504-.399208,1.1904885.399208.300275.8937914.0989126.8937914-.0989126.1978116.3956504.597074.7948381.3956233.1978252.0989601-.3956504-.2967718-.300275-.0989058-.3956504.2967175-.3956504.399208-.2013624.1978116-.3956504.0989601-.4981003-.1978116-.3956504.0988515-.8937507.4981682-.2967446.1978116-.3991809v-.3956572l.4945834-.3002682.0989058-.3956572,1.2929995-.4981003.197866-.3956504h.3991537l.2967718-.7948381.7948856-.3991843.3956233-.1978286.8937914.1978286.399208-.0989126,1.0916031-.8937541.0989601-.8937507.9926973-1.0915793.0989058-.3956538.3003022-.3002716.3956233.098916.8937914-.4945665.399208.2967378h.4945834l.7948313-.5934757.0989601-.7948415.7948856-.6959255.3991537-1.2929384.6924494-.6923883.4981138-1.1940257-.0989601-.4945665.2967718-.8937507-.2967718-.3991876-.2967175-.8937507.3956776-.2967412v-.4980969l-.1978116-.3956538-.399208-.1978286-.0989601-.3991843.8937914-1.6885888v-.7948381l.1978116-.3956538-.1978116-.4981003.399208-.1978252-.1024362-.8937507-.4945834-.1978252-.2967718-.3991876.4945834-1.5861458-.0989058-.8937473.1978116-.7948381-.0989058-.8937541.8937914-.201359.197866-.4945665,1.1940393-.3991843.0989058-.3956538.2967718-.1978252.5970197-.6959255.2967175-.2967412.399208.098916.6924494-.6959255.399208.1978252.2967175-.2967378.399208.2967378.8937914-.0989126.7948856.3956538.8937371-.4945665.3957319-.0989126.3991537.1978252.197866.3956538,1.7875829.201359.4945291.7948381.7948856-.201359.3991537-1.2894046,1.1905632.1978252.8937914.2967412.399208-.1978286.3956776-.6959255.4981138-.2967378.3956776.4980969.6959255-.201359-.1978116-.4945665.1978116-.3991843.4945834-.0989126.1024362-.4945665,1.3883749-1.0915776.4981138.2967395.2967718.4945665-.197866.4980969.8937914.0989126.3956776.1978286.2967718-.2967412.1024362-.5970095-.3003022-1.2894063.197866-.399186.399208-.0989126.4981138.0989126.3956233-.1978252.3956776-.7948398.399208-.2967395.1978116-.3956521.0989601-.4980986.5970197-.0989143.5970197-.6959255.4945834.0989143.8937914-.2967395.399208-.399186h1.3883206l1.1940936.5970112.1978116.3956538.8938458-.0989126.9926973-.5934791v-.5970129l.3956233-.1978269,1.2929995.8937524.4945834-.0989126.3003022-.4981003.3956776.1978269.7948313-.6923934.4981138-.1024447.1978116-.5934791-.0988515-.399186.2967175-.992665-.2967175-.2967395v-.5970129l1.1905089-.5970112.6959255.7948381,2.6813743,1.6885905,1.4908111.5970112,1.0916031-.1978252,3.6740173-1.2929384,1.4908654.0989143.3956776.3002716.8937914.0989126.1978116.5934808v1.0951097l.399208,1.1904919.5970197,1.194024.6923951.8902186,1.0951878.9961971.7948313,1.1904919,2.5788838,1.2894046,2.285751-.0989126,1.6886228-.6959255,1.5897169.3002716,4.2710913.3956538.5934893.201359.7948856,1.1904919.197866.0989126,3.6775477,1.1904919.8937914.4980969.197866.1978286.7948313.7948381.3956776,1.4907636-.2967718,2.0842393-1.3919053,2.9779968.399208,5.6627827-.3003022.6959221-.1978116.1978286h-.0989058l-1.1905632,1.0915793-.4980595.1978252-.3957319.7948415-1.2929451,1.3918476-.4945834,1.4907636.0989058.6923917v.1024498l1.1905089.8937473,1.3919053,1.2894079.3956776.6959255.6959798.2967378.2967175,1.5896762.4981682.5970129,1.1905089.6923951,1.1940393,1.0951063,1.3883749.5934825.3002479.2013556.3957319.3956572.9926973,1.5896762-.0989601.4945631-.2967175.4981003.2967175,1.1904885.597074.5970129,1.1905089,5.1646858,1.7875829,4.3698409.3956776,2.6812589.8973219,1.886414.4945834.2967446h1.6886228l.4981138-.2967446.4945834.197832v.4980935l-.3956776,1.0915827v.4980935l.1978116.3956572-.1978116.5970129.1978116.6959255.6959798,1.0915759.8937914.9926633.0989058.8937507-.4981138,1.3918578-.9926973.8937439-.7948856,2.7801715.3003022,1.2894079.7913009.6959255.2013964.4945631.197866,1.8899512-.2967718.3956504-1.9889249,1.5896762-1.4872807,1.9853334-.399208.8937507-.0989058.9926633,1.0916031,4.9668606-.5934893,1.9853266-.2013964,1.9853266.4981138,1.2929384.1978116,2.2856017.4981682.1978252,1.2894147-.7948313.9927516,1.4907568.4981138.4945699.0989058,1.2929316.4981138.7913145-.3003022.300275v.3956504l-.4945834.6959255-.3002479,1.0915759.4981138.9926565-.4981138,1.9888706.6959255,1.7875014.0989058,1.8864208.7948856.6959255.4981138,1.1904818.2967718,1.4907704-.2967718,1.4872264.1978116,1.391851.4981138.8937507,1.2894691.7948449,1.0916031.296731.4981138.7948449.7948856.5970061,1.2894147,2.8790909-.1978116.3991809.2967718.2967446-.0989601,1.2894012h-.4945834l.0989601.3991809.3956233.0989194.2967718.6959255-.0989058.9926701,1.3919053,1.388307.0989058.5970197.5970197.6959255.6959798.5970061.4945834.0989194.6959255.4945698.197866.3991809-.2967718.4945563.0989058,1.0915895-.3991537.4981003v.8937507l.3002479.7948313h.4945834l-.1978116.4945699-.6959798.5970061v.3991944l.4981138.7948313-.1978116.3956504.4945834.2967446.1978116.4981003h.4981138l.399208-.2967446,1.6850923,1.0915759-.2967175.395664-.0989058,1.391851-.4981138.1978252-.0989601.4980867.197866.7948449-.7913009.3956504.2967175.4981003h-.4981138l-.2967718.8937507-.8937914.3956504-.2967175.395664-1.3919053.6959255-.197866.5970061.3956776.2967446-.1978116.4981003-.4945834-.0989194-.3003022.3956504.197866.4981003-.4945834.7948313h-.399208l-.3956776.2967446.2967175,1.0915759-.3956233.2013692.0989058.3956504-.4981138.3956504.5970197.7948313-.0989058.7948449.3956776.1978252.5970197.8937507v.3991944h-.4945834l-.1024362.4945563.4981138.2013692.2967718.7948313-.197866.4945699-.2967718.296731-.399208.1024498-.2967175.2967446-.399208.0989058-.4945834-.296731-.2967718.296731-.1024362.4981003-.3956776.1978252-.3956233-.1978252-.3003022.2967446h-.8937914l-.0989058.4945699.1978116.4980867.399208.1978388.1978116.3991809-.4981138.1978252-.7913009-.1978252-.399208.1978252-.1978116.4981003-.6959798.3956504-.1978116-.8937507-.399208-.3956504-.3956776-.1024498-.1978116-.3956504-1.4908111-.0989194-.3956776-.1978252-.3003022.2967446-.8937914-.5970197-.3956776.300275-.0988515.8937507-.6959798.4945699.0989058.8937507.3956776.1978252.2013964.8937507-.7948856.3991944.2967175.3956504.197866.8937507,1.0951335.6959255.7913009-.2967446.2013964.6959255.4945834.0989194.197866.296731.3002479-.3956504.4945834.0989194.3003022.3956504,1.7875286.4981003.0989601.3956504.8937371.3991809-.1978116.395664.3956776.296731.1978116.5970197-.3956776.296731.4945834.2013692.1024905.3956504.4945834-.0989194.8937914,1.5896762.5970197.5934757.5934893-.0989058.3003022.8937507.6959255.5970061.2967718.395664.3956776-.1978252.6959255.3991809.6959255,1.2894012,1.7875829-.0989058.6959798.4981003h.4945834l.2013421.8937371,1.5861865.2967446.2013964.4981003.6923951.5934757.4981138.0989194.0989058.4981003h.9927516l.6959255,1.2894012-.2967718.7948449.197866.3991809.3956776.1978252.3991537.4981003.5970197.1978252.8938458-.0989194.4945834.0989194,1.1905089.9926565,1.1940936,1.2894147.2967175.4981003,1.1905632,2.6812521.1024362.7948449,1.0916031,1.388307.5970197,1.2929451.2967718,1.688582,1.5897169,1.7875014.5935436.9926701.2013421,1.5896762.4945834.8937507,1.4908111.2967446h2.2821663l.4981138-.0989194.9926973-.9926565.4981138-.0989194,1.0916031.1978252,1.4908111.4981003,1.2894691.9926701,3.1794339,1.0915759,1.1905632.1978252,1.6886228.6959255,1.6886771,1.6885956.6959255.8937507.7948856,1.5896762,2.879186,2.6812521.4945834.2967446.399208-.0989194v-1.391851l.1978116-.3956504.0989058-.3956504-.1978116-.4981003-.4981138-.5970197-1.7875829-.7948313-.8937914-1.9853266-.3956233-1.1904953.0989058-.5970197-.4981138-.1978252h-1.3883749l-.4981138-1.0915759-1.3883749-.2013556-.3003022-.0989194-.2967175-.3956504.9926973-1.4907568.6959798-.2967446.2967175-.4981003-.197866-.7948313-1.3883206-1.5861458-.8973219-.3991944.1024362-.3956504.9926973-.8937507.0989058-1.6885956.5970197-1.1940122.3957319-1.3883206.2967175-.4981003.4981138-.1978252-.4981138-1.0915759.2013421-.6959255.4945834-.5970197.0989601-.3956504-.197866-.6959255-.3956776-.3956504.197866-.3991809.4945834-.2967446-.6924494-.5970061.0989601-.4945699.4945834-.300275,1.0916031-.1978252.2013421-.3956504v-1.4907704l-.2013421-.6959255-.6924494-.6959255-.2013421-.4945698.2013421-.6959119h-.8937371l-.399208-.2967446.1978116-1.391851-.2967718-.9926701.2967718-.3991809.1024362-1.0915759,1.0916574-.8937507v-1.5896762l.7948313-.5934893v-.4980867l-.399208-.1978388-.0989058-1.4907568.197866-1.1904953.4981138-1.7875014,1.1905089-.5970061,1.8864887-1.4907704.399208-.7913009.0989058-.9962005.4981138-1.0915759.3956776-.3956504,1.0916031.0989058.4981138-.300275-.1978116-.4945563.0989058-.4981003,1.1905632-.1978252.8937371-.6959255,1.1905632-.5934893.5970197-.3991809.399208-.1978252,1.1905089.0989194,1.4908654-1.0915895.6923951-.1978252.5970197.1978252,2.3846026-.6959255.2967718-.296731v-.9926701l.4981138-.3991809-.399208-.6959255v-.7948449l.3002479-.296731h.4945834l.4981138.3991809,1.3884292.0989058.7948313.395664.197866-.5970197.3002479-.296731,1.0916574-.0989194.4980595.0989194.3956776.3991809.7948856-.3991809h.4981138l1.2894691.6959255.4981138,1.391851.4945834.3956504.5970197.1978252.4945834-.2967446,1.2929995.8937507,1.3883206.0989194.8938458-.0989194.3002479-.300275.2967718.2013692.5970197.0989058.2967175-.300275h.4981138l.4945834,1.391851-.1978116.4981003v1.0915895l.3956776.296731v.3991944l1.3919053,1.388307,1.0916031-.3956504.399208.2967446.2967718.3991809.0989058.4945699-.2967718.5970061.4945834.7948449,1.6886771.0989058.7948313.4945699.197866,1.4907704-.2967718.3956504.0989058.4981003h.399208l.4945834.1978252.197866.3991809.3991537-.0989194.3956776.395664-.2967175.8937507-.2967718.1978252v.4981003l.8937914.1978252-.0989601.7948313.2967718.4981003-.399208.4945699.3003022.7948449.0989058.3991809v.5934757l1.0916574-.1978252.7948313.6959255.4981138-.300275,1.7875829.3991809.2967718.2967446-.197866.4981003.2967175.3956504.6959798-.5934757.9926973-.3991809.0989058-.3956504.4981682.0989058.1978116-.3991809h.5970197l.7913552.4980867.2013421-.9926565,1.7875829.2967446v.4981003h.5934893l.3003022.296731h.5934893l1.3919053-1.391851.0989058-.3956504-.8937914-.3956504.6959798-.6959255.3956776.0989058.3002479-.5970061-.0989058-.3956504.1978116-.3991944-.3003022-.3956504.2013964-.3991809.7948856-.5934757.5934893-.0989194.4981138.2967446,1.2894691-.0989194.3991537.2967446.2967718-.2967446.0989058-.4981003.9927516-.296731.8937371.0989058.399208-.8937507h1.1905089l.4981682.0989194.1978116-.2967446,1.2894691-.8937507.3991537.0989194.2967718-.6959255.0989058-.9926701-.2967175-.1978252.1978116-.8937507-.5934893-.6959255.0989058-.9926701-.3003022-.300275-.4945834.2013692-.6959255-.7948449-.4981138-.1978252-.3956776-.8972811-.399208-.3956504v-.4945698l-.9926973.0989058-.1978116-.4981003.4981138-.1978252-.2013964-1.0915759-.6923951-.2013556-.0989601-.3956504-.2012877-1.8864208.4980595-.3991809v-.4945699l.4945834-.7948313v-.4981003l1.9889793-1.5896762.1978116-.4945699-.1978116-.5970197v-.3956504l-.3003022-.300275.399208-.296731.3956233-.8937507.6959798-.395664v-.4980867l.2967718-.4945699-.197866-1.1940257.0989058-.2967446.8937914-.1978252v-1.2929316l.5970197-.3956504.0989601-.2013556-.7948856-1.48724.3002479-.4981003.3956776-1.3883206-.3956776-.9961869.2967718-.2967446.3956776.2967446.4981138-.4945699.6959798-.6959255-.0989601-.5970197.3956776-.1978116h.4981138l-.1024362-.395664.9962277-1.0915759.3956776-.2013556.1978116-.3956504-.2967718-.3991944.0989601-.4945563-.2967718-.4981003.0989601-.4945699.2967175-.8937507.8937914-1.1940257.1978116-1.4872264,1.0951335-1.2929451-.0988515-.4945563h.6923951l.5970197-.8937643,1.1905632-.6959255-.2967718-.4980867.1978116-.4945699.3003022-.3991944-.0989058-.5934757.6923951-.7948313-.2967718-.3991944-.3956233-.296731-.1024362-.4981003.8937371-1.0915759.3003022-.4981003,1.5897712-.4945699.6923951-.3956504.7948856-.7948449.5970197-3.6774527.4945291-1.688582h61.2789737v14.7981252l-.197866.3002615.6959798.8937643v1.388307l.2967718.300275h.3991537l.4945834.6923951-.1978116,3.1793524.1978116.3956504v.8937507l-.8937371,1.8899512.0988515,1.7875014.399208,1.6850652.2967718.2013556v.4945699l-.2967718.3991809-.2013421.7948449.1024362,2.4798965,1.3883749,1.1940257,1.1905089.4945563.399208.300275.7948856.0989194.1978116.3956504.3956776-.1978252.4981682.296731.8937371.9962005,1.1905632.4945698.3003022.7948313.3956233.0989194.2967718.3991809-.5935436,1.5861458.6959798,1.5896762.2967175.300275.3957319.7913009v.8972947l-.0989601.4945563-.4945834.5970197-.399208.1978252-.1978116.7948313.1978116.395664.0989058,1.2929316-.3956233.1978252.0989058.7948449.6959255.5970061.0989058.3956504.3957319.1978252.3002479,1.1940257v.3956504l1.0916031.4981003.8937914.8937507.1978116.4945699.399208.0989194.3956776-.0989194.6959798.300275,1.1905089,1.9853266.6959255.3956504.399208.0989194.0989601.3991809.6923951.5934893.399208.1024362.1978116.3956504.2967718.1978252.1024362.3991944,2.0843004,1.2894012.0989601.3991809.3956233.1978252.2013964-.296731.3956776.0989058.4980595-.2013556-.0988515.7948449.2967175.6959255h.3956776l.2013421.3991809.4945834.296731v-.4980867h.399208l1.2894691,1.0951063.0989058.3956504-.9926973.3956504.1978116.4981003-.0989058.9926701,1.0916031,1.391851.1024905.5934757.6923951.2013556v.395664l.3003022.3991809-.6959798.4945698-.0989058.4980867.2967175.4945698-.5970197.9926701.9962277.8937507.2967718-.2967446.3956776.2967446.3002479-.2967446.197866.5970197,1.0916031.8937507.3003022,1.4872264.3956776.1024498-.2967718.4945699.4945834.3991809.399208-.2013556.4945834.7948313.8937914.5970197-.1978116.3956504,2.68132-.1978252.1978116-.395664.7948856.0989194.5970197,1.2894012,1.4908111.4981003,1.0916574,1.7875014.7948313.2967446.9926973,1.2929451.2967718-.2013692,1.4908111-1.8864208.4945834-.1978252-.1978116-1.1904818,1.4908111-.2013556.6959255-.6923951-.0989058-.5970197.0989058-.5970061,2.1832605-1.1904953.4980595-.0989058.7948856.1978252.3956776.6959119-.2967175.5970197.4945834.8937507,1.4907568.3956504.3992623.4981003v.5934757l-.3992623.9926701.6959798.6959255.0989058.9926701-.5970197.4981003-.8937914,3.1793524v1.0915759l-.3956776.3956504-.0989058.5970061.197866.6959255.6959255.6959255.6959798.0989194-.3003022.3956504v.4981003l1.0916031.3956504-.197866.9926701.399208.300275.7948856-.4981003.8937914.296731.5934893.3991944-.4945834.4945563.3956776.4981003.3956776-.1978252.5970197.4945699.6959255-.5934757.8938458.0989058.8937371.1978252.2967718.3956504.8937914.2013692.2013421.5934757.4945834.0989194.0989601.8937507.3991537.300275.2967718.5934757.2967718.2013556.3991537-.0989058.197866.5934757-.197866.4981003h.5970197l.5935436-.300275.5970197.2013556.2967175-.300275.7948856.4981003.8937914-.300275.0989058,1.6885956.399208.5970061.0989601.7948449-.197866.7948313h.6924494l.7948313.9926701,1.1940393-.7948313.0989601.3991809,2.282112-.300275.0989601-.3956504.3991537-.300275.6959798.5970197-.3003022.4980867.1024905.4945699.3956233-.0989058,1.1905632.3991809h.5970197l.3956776.296731.3002479.6959255.7948856.1978388-.2013421,1.391851,1.1940393-.5970197.197866.5970197.4981138.1978252h.6923951l-.0989058.3956504.3991537.7948449,1.886543-.5970197.1978116.4980867-.1978116.5970197.6959255.1978388.7948856-.9926701.4945291.0989058-.0988515.4945834.3956233.3991809.4981138.1978116-.1978116.5970197-.4981138.3956504.399208.4981138,1.0916031-.4981138,1.0916031,1.0915759.4981138-.5934621-.2013421-.4981138.9962277.0989058,1.1905632.7948585.4981138-.9926701,1.1905089-.0989058.0989058.4980867.4981138-.1024362.2967718-.4945834-.1978116-.5969925h.3956233l.597074.3991809-.3003022.3956504.2013421.4980867.7948856.2967446.3956776-.0989058.3956776-.4981138.5970197-.1978116.1978116.6959255.3003022.1978116.3956233-.2967175.4981682.3956504.6959255-.4945834.1978116.3956504-.4980595,1.1940393.4980595.2967446-.0989058.6959255.7948856-.399208.9926973.098933.7948856,1.4907568.8937371-.8937643.6924494.3956776.1024362.6958983.197866.300275.4945291.098933.399208.2967175.197866.3956776-.6959255.8972675.3002479,1.0915759.5934893.6959255.9926973,2.4798965.5970197.2013692,2.0843547-.3991809.399208.8937371.7948856.5970197.1978116.9926701.4980595.3956504,2.0843547.3991809.3956233.1978388.4981682.1978116,1.0916031.8937643.8937914,1.292918.7948313.1978388.5971283.0989058,2.1832062-.0989058,1.391851-.5970197,1.0916031.0989058.6959798.5970197.3956233.4981138.3003565.992643-.0989601.8937643-.1024362.2967446-.3956233,1.0915759-1.0916031.9962005-.8939001,1.5861322v1.391851l.3957319.3956504.5970197.2013692h1.2894147l.9927516.3956504.3002479.8937643,1.2895234.5969925,1.0916031-.0989058,1.1940393-.3991809.5970197.0989058.5935436.300275.3002479-.300275.2967718-1.1904818.2967718-.3956504.399208-.1024634.4945834.300275.5970197-.1978116.5970197-.6959255.8937914-.4981138.7948313-.7948313h.3956233l.5971283.300275,1.5861865,1.3883206.399208-.1978388.4980595-.4980867.9927516-.1978388.3956233.1978388.5970197.7948313.5935436.2013692,1.0950792-.8972947.5935436-.7913009.6959798-.3991809.992643.6959255,1.2929995-.1978388.4945834-.300275.4981682-.9926701.4945834-.0989058v-.7948313l.1024362-.1978388.8937914-.4980867,1.2894147-.1978388,1.4908111-1.7875014,1.0916031.300275.5970197-.2013692.1979203-.4945563.3956233-.300275.6959798-.1978116.4980595.1978116.9927516-.1978116,2.4834541-.5970197.0989601.4980867-.3002479.5970197-2.0843547,2.7801715-1.4908111,2.4834269-1.1905632,1.3883206-1.5896626,1.2929451-2.2821663,1.3883206-3.677602,1.5896626-1.6886228.3991809-1.0917117.5934893-.2966632.4980867-1.1905632,2.2820848-.3002479.9962005-.0989601.7913009-.3957319.7948313-2.0878308,2.8826078.0989601.4945834.399208.1978116.992643.2013692.6959798.4945563.8937914.098933.2967718.3002479-1.6886228,3.175822-2.879186,6.3551744-2.6813743,5.7617123-2.0878308,4.4687671-3.7729774,8.4429237-6.2565401,13.5052072-.1978116.5970197-2.2856424,4.8643904-4.1686007,8.8386013-1.3919596,3.476097-2.2856424,5.0657868-3.3738237,7.5491865-12.3186361,26.3179922-16.0881374,34.0614871-3.7729231,8.344045-4.567863,9.8312714-8.4432767,18.373128-21.4507774,46.6764061-.5970197.5935436-.4945834.3991537-.2013964.0989058h-.0989058l-.2967175.197866-1.3919053.0988515-.3956776.2013964-.3003022,1.7875286-.3956776.8937371-.5970197.6923951-1.0916031.6959255-2.9780918,2.1866823-1.1940936,1.9852859-.8937371.8937914-.6924494,1.5896626-.2013964,4.46874.597074,1.1905089.3956233,1.7875286,1.5897712,3.8752507,1.4908111,1.6886228.6959255.4945291.3956776.7948313.2967718.2967718,1.2929995.1024362.8937371.5934893.6959798.8937371,2.0843004,3.2782854.9926973.992643.8937914.1978116.399208.3003022.7948856,1.0916031.3956233.794777.6959798.5935436.5970197,1.0950792.7948856,1.1905089.890261,2.8790774-.3956776,2.1866823.1978116,1.7875286.0989058.3956233,1.1940936,1.6885684.5934893.6959255-.2967175.399208-1.6886771,1.5861322-2.1832605,3.476097v1.8864344l-.4981138,1.5896626.2967718,1.7875286.4981138,1.3917967.2967718.7948856v1.2894147l-1.9853945,1.7874743-.6959798,1.1940393v.0989058l-1.3883206,1.3883206-.0989601.3003022-.2013421,1.5861322v.4980595l-.5935436,1.2894147-2.0878308,1.6886228-1.9853945.8937371-.4981138.6959255-.0989058.3002479v.6923951l.3991537.6959255.0989601,2.2855881.9926973,1.9853402,1.1905089,1.2894147.399208,1.2929451v.8937371l.1978116.8937371,1.5897712,2.5823599.2967175.6959255v.0989058l-.2967175.7948856.1978116,1.3883206-.1978116.3991537-1.3919053.992643-.2967175.7948313.5970197,2.084246-.4981682,1.2929451v2.084246l-.3956233.7948856.0989058.3956233.5970197.6959255v.8937371l-.2013421.399208-1.5897169.7913009-.0989601.4980595.0989601.7948313-.2967718.7948856v.4945834l-1.1905089,1.8899105-.6959798.5934893-.4981138,1.2929451-.3956776.1978116-.5970197,1.2894147v.1024362l.0989058,1.1904546.5970197.7948856v.4945834l-.2967175,1.6885684.5934893.4980595.399208.6959798v.5934893l-.4981138.5970197-.197866.8937371-.4945834.6958712-1.2929995,3.1758491.197866.399208,1.1940393.4945291,1.2894691-.6923408.3956776-.0989601,1.5897169-.2013421,1.1940936.4981138.0989058.4945291-.3003022.3003022-1.1905089.5934893-2.1832062,2.2855881-.7948856.4981138-.3003022.1978116-.3956776-.1978116-.399208.0989058-.6923951.4945291-3.080528.197866h-33.5681257l-39.1286317-.0989058-30.2932622-.2967718-17.4799884.0989601h-44.8905341l-.2967718-.197866h-.8937914l-.8937914-1.9853402-.399208-.2013421.2013964-1.2894147-.2013964-.3991537-.7913009-.0989601-.3003022-.3956233-1.1905089-.3956776-1.2929995.1978116-.3956233-.0988515-.4981682-1.0951335-.6923951.3002479-.7948856.0989058-.2013421.3956776.3002479.3991537-.3002479.3956776-.1978116.399208-.7948856.1978116.0989058.4945834-.6924494.5969653-.7948313-.1978116-.8937914.1978116-1.1940393-.794777h-.3956776l-.399208.794777v1.6886228l-.6923951.4981138-.3003022.7913009.3003022.7948313-.3003022.3002479-.0989601.3956776.197866,1.1904546-.9926973.4981138h-1.2894691l-.1978116.5970197-.9962277.2967718-.6924494.0988515-2.1867366-.3956233-.3956776.2967718-.2013421-.3956776-.2967718-1.2929451-.3956776-.7948313-.9926973-.4945834-.4981138-1.2929451-1.0916031-.1978116-1.2929995.0989601-1.1905089.5969653-1.4908111-.3991537-1.5897712-3.3736608-.0989058-.399208.399208-.6959255-.3003022-.3956233-.6923951-.399208-.2013964-.4945834.3003022-.794777-.8937914-1.1905089-.9926973-.6959798.2967718-.3991537h.9926973l.0989058-.4945834-.2967718-.992643-.399208-.9961734-.7948313.2013421-1.3883749-.2013421-.7948856-.5935436-1.3919053-.1978116-.2967175.3956776-.7948856.2967175-.1978116.399208-.0989058.4945291.8937371,1.2929451-.0989058.4945834h-.4981138l-2.4835084-1.5861322-.2967718-.399208v-.3956233l.6959798-1.1940393.0989058-.4945834-.399208-.8937371v-.992643l-.1978116-.5970197-.8937914-.2967718-.2967175-.3002479-.2967718-.6923951.0989058-.7948313-.3003022-1.6885684.399208-1.2929995.0989601-.8937371v-.3956233l-.3992623-.4981138-.5934349-.4945834-.597074-.2013421-.2967718-.0989058-.6959255.0989058-1.2894147-.2967175-.6959798-.4945834-.4981138-.6959255-.597074-.4980595h-.3956233l-.2967718.2967175-.4981138.6959255-.6959255.3991537-.9927516.9926973-.3956233-.0989058.0989058-.399208-.399208-.1978116-.3956233-.6959255h-.597074l.0989058-.8937914-.3956233-.7948313.0989058-.3956233-.3956776-.2967175.2967718-.399208-.2967718-1.1905089-.399208.1978116-.2967175-.3956233-.399208-.1024362-.197866-.3956776-.3956233.197866-.399208-.197866-.4945834-.5970197-2.1867909-1.2894147-.1978116-.3991537.1978116-.3956233-.4945834-1.1905089-.6959255-.399208-.4981138-.5970197-.197866-.3956233v-.399208l.3956776-.2967175.3003022-.7948313-.0989601-.4945834-.5970197-1.0951335.3956776-.2967175-.6923951-.4945834v-.4980595l-1.1940936-.5970197-.5934893-.6924494-.9926973-1.193985-2.2856967-1.0916031h-1.2929451l-.5935436-.5969653-.5970197-1.0916031h-.4945834l-.2013421-.3956776h-.3956776l-.7948856-.5970197h-33.9673338l-1.7875286-.0988515-4.6667689-.3003022-.2967718,2.5823599.2967718.6958712-.2967718.5970197-.5970197.3956776-.6959255.992643-.8937914.7948856-.0989058.5970197.3956776.4980595-.3956776,1.0915488-.3956776.2967718-.8937914,1.6885684-1.9889249,1.1905089-.8937914.9962277-.0989058.4945291,1.3919053,2.1867366-1.2929995,1.0915488-.6923951,1.1905089-.3003022.6958712-.3956776.8937914-.4980595.3956776-.4946377.2013421-1.7875286-1.391851-1.1940936-.5970197-1.0916031-.2967175h-.0989058l-.0989601-.0989601-.5970197.197866-.6959255.5970197-.4945834.992643-.3003022.3956776-1.1905089-.197866-.5970197.3003022-.0989601,3.076889-1.6886228,1.1905089-.0989058.4980595,1.2929451.4981138.7948856.6923951-.0989058.5970197-1.6886771,1.391851-.1024362.4945291.4981138.9926973,1.1905632,1.0950792-.0989601,1.2894691.5970197.3956233.597074.1024362-.1024362.8937371-1.0916574,1.7875286-.4945834-.0989058-.5970197-.5970197-.0989058-.4981138-.2967718-.2967175-.399208-.0989601-.2967175.2967718-.3003022,1.6885684-.197866.197866-.4945834.3002479v.7913552l-.6959255.5969653-.0989058.399208.1978116.3956233-1.0916031,1.391851.3956776,1.1905089-2.0843547-.1978116-.3991537.0989058-1.0916031.7948313-.8938458-.0989058-.6959255-.4981138-.2967718.2967718-.6959255,1.0950792-.0989058,1.7875286.8937914,1.5896626-.3956776.7913009-.9926973.7948313-.2013421.399208.0988515.2967175.3992623,1.391851-.197866,1.2894147.5934893,2.5823056-.0989058.399208-.2967175.2967718-1.3919053.0989058-3.1759578,1.6885684-1.6886228-.1978116-1.6886771.3956233h-.7948856l-.6959255-.3956233-.0989601-.4981138.6959798-1.4907568.197866-.8937914-.197866-.1978116-.0989058-.0989058h-.399208l-3.0770519.8937371-1.4907568.7948856-1.3919053.3991537-.6924494.4945834h-.4980595l-.7948856-.1978116-1.3883749.2967175-1.9889249-.1978116-.8937914.0989058-.4945834.2967175-.4981138.4981138-.4945834-.1978116v.6959255l-.4981138.3956776-.6959798.1978116-.5934893.1978116-1.5897169-.4945834-.8937914.0989601-.6959255.2967175-.6959798-1.0916031-.4945834-.1978116h-.4981138l-.3956776.0989058-1.1940393,1.0916031-1.1905632.3991537h-.399208l-.8937914-1.391851-.4945291-.2967175-.597074-.2013421-.9926973.1024362-1.1905632.3956233-1.6886228.9926973-.8937914.8937371-.3002479.7948313-.3956776.1978116-.8937914-.1978116-.0989058.399208.197866,1.2893604-.9927516,2.3845482-.2967175.2967175v1.2929451l.2967175.2967718.2967718,1.1904546-.197866.399208.4981138.6923951-.2013421.3991537.399208.7948856-.0989058.4945291-.597074.5970197-.1978116.8937371-.2967718.3003022-.6959255.4945291v.3956776l-.4981138.7948313-1.1905632-.0989058-.7948313.6959255-.0989058.6959255-.4981682.5934893.3003022.7948313-.5970197.1024362h-.197866l-.2013421.4945834-.2967718.0989058-.4945834.1978116.197866.7948313-.5970197.6959255v.4981138l-.3956776.2967718-1.2929995-.0989601-.2967718.197866h-.0988515l-.3003022.2967175.0989058.7948313-.3956776.399208h-.8937914l-1.5897169.7948313-.5934893-.4981138-1.1940936-.5934349h-.4945834v-.5970197l.5935436-1.1905089.0988515-.399208-1.2894147-.5970197v-.3956233l.4981138-1.1905089-1.0951335-1.8899105-.197866-.4945834.2967718-.399208-.0989058-.3956233-.197866-.399208-1.4908111-.8902067-.3956233-.2013964-1.9854489.6959255-.8937371.8937914-2.285751,1.1905089-.3956233.6958712-1.3919053.0989058-.1978116.399208-.3003022.2967718-.3956776.0989058-.8937914-.8937914-1.5897169-.5934349-.3956776.1978116-.0989058.4945291.2967718.3003022-.197866.7948313v1.3883206l-.4981138,1.5896626.0989058.3956776.597074.6959255.5970197,1.9853402-.1024362.4980595-.4945834-.0989058-.6959798.2967718-.5970468-.5970197-.4945834.6959255-.8937643.0989058-.4981138-.1978116v-.6959255l-.1978388-.4945834-.4945834.0989058-.3991809-.1978116-1.7875829-1.2929451-.6959526-.1978116-.9926973-.2967718h-.4945834l-1.0951607.6959798-.8937643.1978116-.3956776.1978116-.498141.6959255-.2967175.0989058-.8937914-.0989058-.3956504.2967175v2.5823599l-.8973219.3956233-1.388402,2.7837019-.3991809.197866-.6924222-.5970197-.3991809.0989058-.2967446.7948313-.7948856-.1978116-.399208.6959255-.6923951.3956233h-.4981138l-.2967718-.7948313-.1978116-.2967175-.399208-.0989058-.3956776-1.7875286-.8937643.197866-.399208-.0989601.0989058-.7948313-.2967175-.2967175h-.3957048l-1.0951335-1.2929451-.9926973.0989058-.6959526-.2967175-.5935164-.6959255-.4981138-1.2894147-.9926701-.5970197-.098933-.3956776-.7948856-.3991537-.1978116-.3956776h-.7948856l-.8937643-.4980595-1.6886771-.197866-.3991809.0989601-.2967446.3956233-.6959526.4981138-2.1832333-.2967718-.7948856-.2013421-.4980867-.0989058-.197866.2013421-1.3883477.4945834-.2013692.3003022-.7948585.3956233-1.6851195-.3956233-.8973219-.1024905-.7913552.3003022h-.3991809l-.8937643-.9926973-.3957048-.1024362-1.1940393.1024362.300275,1.0916031-.399208.1978116-.8937643.0989058-.3956776-.1978116.098933-.3956233-.2967718-.3003022-.9962277.3003022-.7948585-.4981682-.7913281.3956776-.399208.1024905-1.7875829-1.0951335-.2967446.3991537-.0989058.4945834.9927244.7948313.3956504.9926973-.1978388,2.3844939-1.5897441,1.391851-.8937914,1.4872264-1.490784,1.4907568-1.4872807,1.0916031v.6959255l-.098933.5970197-.1978388.3956233-1.9889521.5970197-.6959526.6959255-1.3883477.4945834-.4981138.3991537-1.2894691-.4981138-.7948313.8937914-3.1794882,1.7874743-.3956504.9926973-.4981138.5970197-1.2894691.5970197-1.3919053.1978116h-.5934893l-.6959526-.3003022-.399208.3003022.3003022.4945291-.2013692,1.2929451-1.3883749,1.1905089-13.6081323-5.7581547-2.479978-.9926973-1.4908111-.5969653-1.7875829-.7948313-8.6410884-3.673963-32.773213-13.8054279-13.1100184-5.5603974-23.4397295-10.0326134-5.758372-2.5823599-1.1940665-.5934349-1.7875557-.8937371-11.0221605-5.6628336-10.1318995-5.2635713-13.8024135-6.8532339-6.2600162-3.3736608-11.1210663-6.0584569-19.7656851-10.5271969-8.7400078-4.6666059-4.1686279-2.1866823-4.9670303-1.1904546-6.0586606-1.2929451-19.4653965-4.1720225-16.2894659-3.6739087-14.4983661-3.3771912-3.0805552-.6923951-22.2456698-5.0657596-1.0916167-.2967175-.9926973-.2013964-8.0440551-2.4799237-.8937847-.2013421-25.1283862-5.1646655-1.7875625-.7913552-9.534873-4.3698341-24.8280976-10.9263506-22.0478361-9.8312714-3.179467-1.6885684Z"/></g></svg>